<svg width="140" height="66" viewBox="0 0 140 66" fill="none" xmlns="http://www.w3.org/2000/svg">
<path d="M7.75532 3.06482V7.97863H10.7362V8.61186H7.75532V21.2257C7.75532 21.6056 7.83111 21.8842 7.95742 22.0615C8.10898 22.2388 8.33634 22.3148 8.66474 22.3148C8.8921 22.3148 9.14471 22.2388 9.44785 22.1122C9.75099 21.9855 10.0289 21.7576 10.3067 21.4283L10.7615 21.7829C10.332 22.5174 9.77625 23.1 9.06893 23.5306C8.3616 23.9612 7.50271 24.1892 6.46698 24.1892C5.81018 24.1892 5.2039 24.1132 4.6734 23.9359C4.14291 23.7586 3.6882 23.5053 3.33454 23.1507C2.87983 22.7201 2.60195 22.1628 2.47564 21.5043C2.34933 20.8457 2.29881 19.9846 2.29881 18.9461V8.61186H0V8.00396H2.29881V4.40725C3.3598 4.40725 4.345 4.30594 5.22916 4.07798C6.11332 3.85002 6.94695 3.54607 7.75532 3.06482Z" fill="#4527A0"/>
<path d="M22.4323 7.57336C23.1649 7.57336 23.7207 7.72534 24.1249 8.05461C24.529 8.35856 24.8069 8.7385 24.9838 9.21975C25.1353 9.701 25.2364 10.1569 25.2364 10.6382C25.2364 11.55 24.9838 12.2845 24.4533 12.8165C23.948 13.3484 23.266 13.627 22.4323 13.627C21.5482 13.627 20.8661 13.4244 20.4114 13.0191C19.9567 12.6138 19.7293 12.0819 19.7293 11.4234C19.7293 10.7395 19.8809 10.1569 20.1588 9.72632C20.4619 9.2704 20.8408 8.9158 21.2703 8.61185C20.9166 8.61185 20.5882 8.68784 20.3104 8.81448C19.982 8.96646 19.6788 9.16909 19.4262 9.44771C19.1483 9.701 18.921 10.0303 18.7694 10.3849C18.6178 10.7395 18.5168 11.1194 18.5168 11.5247V20.6431C18.5168 21.6056 18.7189 22.2642 19.1231 22.6188C19.5272 22.948 20.2093 23.1253 21.1187 23.1253V23.7586C20.664 23.7586 19.982 23.7332 19.0473 23.6826C18.1379 23.6572 17.1779 23.6572 16.218 23.6572C15.3086 23.6572 14.3991 23.6826 13.4645 23.7079C12.5298 23.7332 11.8224 23.7586 11.3677 23.7586V23.1253C11.9993 23.1253 12.4287 22.9734 12.6813 22.6694C12.934 22.3655 13.0603 21.7829 13.0603 20.947V11.322C13.0603 10.4102 12.934 9.72632 12.7066 9.29573C12.454 8.83981 12.0245 8.63718 11.3677 8.63718V8.00396C12.0245 8.05461 12.6308 8.07994 13.2371 8.07994C14.2476 8.07994 15.1822 8.05461 16.0664 7.97863C16.9506 7.90264 17.7589 7.80132 18.5168 7.64935V9.82764C18.7694 9.29573 19.0978 8.86514 19.4767 8.53586C19.8556 8.20659 20.3104 7.9533 20.7903 7.80132C21.2956 7.64935 21.8513 7.57336 22.4323 7.57336Z" fill="#4527A0"/>
<path d="M29.8845 23.9865C28.5204 23.9865 27.51 23.6066 26.9037 22.872C26.2974 22.1375 25.969 21.2763 25.969 20.3138C25.969 19.4526 26.1711 18.7434 26.55 18.1862C26.9289 17.629 27.4342 17.1984 28.0404 16.8438C28.6467 16.4892 29.3035 16.2105 29.9856 15.9826C30.6677 15.7546 31.3245 15.5267 31.9307 15.2987C32.537 15.0707 33.0422 14.8174 33.4212 14.5135C33.8001 14.2095 34.0022 13.8296 34.0022 13.3737V10.6635C34.0022 10.3342 33.9517 9.97961 33.8254 9.59968C33.7243 9.21975 33.497 8.89047 33.1938 8.58652C32.8907 8.3079 32.436 8.15593 31.8297 8.15593C31.5013 8.15593 31.1981 8.20659 30.895 8.28258C30.5919 8.38389 30.3393 8.51054 30.1119 8.66251C30.8192 8.9158 31.3245 9.29573 31.6529 9.77698C31.9813 10.2582 32.1328 10.7648 32.1328 11.3474C32.1328 12.1579 31.855 12.7911 31.2739 13.2724C30.7182 13.7283 30.0361 13.9816 29.2783 13.9816C28.4699 13.9816 27.8384 13.7283 27.4089 13.2217C26.9542 12.7151 26.7521 12.0819 26.7521 11.3474C26.7521 10.7142 26.9037 10.1822 27.2321 9.75165C27.5352 9.32106 28.0152 8.9158 28.6467 8.56119C29.253 8.20659 29.9856 7.97863 30.8192 7.82665C31.6529 7.67468 32.5623 7.59869 33.497 7.59869C34.4822 7.59869 35.4168 7.70001 36.2505 7.87731C37.1094 8.07994 37.8167 8.48521 38.423 9.11843C38.8524 9.57435 39.1303 10.1316 39.2313 10.7901C39.3577 11.4487 39.4082 12.3099 39.4082 13.3737V21.5296C39.4082 22.0362 39.4334 22.3908 39.5092 22.5681C39.6861 22.6947 39.8124 22.7961 39.9892 22.7961C40.1408 22.7961 40.3176 22.7454 40.4692 22.6441C40.6207 22.5428 40.7723 22.4415 40.8986 22.3401L41.2018 22.8467C40.747 23.2266 40.2165 23.5053 39.5597 23.7079C38.9029 23.8852 38.2209 23.9865 37.4883 23.9865C36.1747 23.9865 35.2905 23.7586 34.8611 23.2773C34.4316 22.7961 34.179 22.2641 34.1538 21.6563C33.7496 22.3148 33.1938 22.872 32.5118 23.3026C31.8044 23.7586 30.9455 23.9865 29.8845 23.9865ZM32.9159 21.5549C33.1433 21.5549 33.3454 21.5296 33.497 21.4536C33.6738 21.3776 33.8506 21.251 34.0275 21.0484V14.6148C33.8254 14.9694 33.5727 15.2987 33.2696 15.5773C32.9665 15.8559 32.6633 16.1345 32.3854 16.4638C32.0823 16.7678 31.855 17.173 31.6529 17.629C31.4508 18.0849 31.375 18.6674 31.375 19.3766C31.375 20.1872 31.5266 20.7444 31.8044 21.0737C32.1076 21.3776 32.4865 21.5549 32.9159 21.5549Z" fill="#4527A0"/>
<path d="M48.4012 7.57336C49.2854 7.57336 50.0685 7.67468 50.7506 7.85198C51.4326 8.05461 51.9126 8.23192 52.2157 8.38389C52.9231 8.81448 53.3525 8.53586 53.5294 7.59869H54.1356C54.0851 8.18126 54.0598 8.89047 54.0346 9.75165C54.0093 10.6128 54.0093 11.702 54.0093 13.0697H53.403C53.3273 12.3099 53.1504 11.5753 52.8726 10.8408C52.5947 10.1063 52.2157 9.49836 51.6853 9.01711C51.18 8.53586 50.498 8.28257 49.6643 8.28257C49.1591 8.28257 48.7296 8.43455 48.4012 8.7385C48.0476 9.04244 47.896 9.44771 47.896 9.97961C47.896 10.5875 48.0728 11.1194 48.4518 11.6007C48.8307 12.0819 49.2854 12.5378 49.8412 12.9684C50.3969 13.399 50.9779 13.8549 51.5337 14.3615C52.4684 15.1214 53.2515 15.8559 53.8578 16.6158C54.4893 17.3757 54.7924 18.3382 54.7924 19.5033C54.7924 20.4151 54.5146 21.2257 53.9588 21.9349C53.403 22.6441 52.6705 23.2013 51.7358 23.5813C50.8264 23.9865 49.7906 24.1638 48.6539 24.1638C47.9465 24.1638 47.3403 24.0878 46.8098 23.9359C46.2793 23.7839 45.8498 23.6066 45.5467 23.404C45.2183 23.252 44.9404 23.1253 44.713 23.024C44.4857 22.9227 44.2583 22.8974 44.031 22.8974C43.8289 22.8974 43.6521 22.9987 43.5257 23.2266C43.3742 23.4293 43.2731 23.6826 43.1973 23.9612H42.5911C42.6416 23.3026 42.6668 22.5174 42.6921 21.5803C42.7174 20.6431 42.7174 19.402 42.7174 17.8822H43.3236C43.45 18.9461 43.6773 19.9086 44.031 20.7444C44.3846 21.5803 44.8393 22.2388 45.3951 22.6947C45.9509 23.176 46.5824 23.404 47.315 23.404C47.7697 23.404 48.1991 23.2773 48.5528 22.9987C48.9065 22.7201 49.0833 22.3148 49.0833 21.7322C49.0833 20.8457 48.8054 20.0859 48.2749 19.478C47.7444 18.8701 47.0624 18.2115 46.254 17.477C45.6477 16.9197 45.0667 16.3625 44.5362 15.8306C44.0057 15.2987 43.551 14.7161 43.2226 14.0576C42.8689 13.4243 42.7174 12.7151 42.7174 11.9046C42.7174 10.9928 42.9952 10.2076 43.5257 9.57435C44.0562 8.9158 44.7636 8.43455 45.6225 8.07994C46.4814 7.75067 47.416 7.57336 48.4012 7.57336Z" fill="#4527A0"/>
<path d="M64.4173 7.57336C65.3015 7.57336 66.0846 7.67468 66.7919 7.85198C67.474 8.02928 68.0297 8.25725 68.4339 8.48521C68.9897 8.81448 69.4191 9.24507 69.7475 9.77698C70.0759 10.3089 70.2527 10.9421 70.2527 11.6513C70.2527 12.4872 69.9749 13.1711 69.4444 13.7536C68.8886 14.3109 68.2065 14.6148 67.3477 14.6148C66.4635 14.6148 65.7814 14.3615 65.2762 13.8549C64.7962 13.3484 64.5436 12.6898 64.5436 11.8793C64.5436 11.1194 64.7962 10.4609 65.2762 9.92896C65.7814 9.39705 66.3625 9.04244 67.0193 8.83981C66.8677 8.7385 66.7161 8.66251 66.514 8.58652C66.3119 8.51054 66.0846 8.48521 65.8067 8.48521C65.0741 8.48521 64.4931 8.71317 64.0384 9.14376C63.5837 9.57435 63.23 10.1569 62.9774 10.8661C62.7248 11.5753 62.5479 12.3352 62.4469 13.1457C62.3459 13.9563 62.2953 14.7415 62.2953 15.5267C62.2953 16.9451 62.4974 18.0595 62.8763 18.8447C63.2553 19.6299 63.7352 20.1872 64.3415 20.4911C64.9225 20.7951 65.5036 20.947 66.1098 20.947C66.514 20.947 67.0698 20.8457 67.7518 20.6178C68.4339 20.3898 69.116 19.8326 69.7728 18.8954L70.278 19.0727C70.0254 19.8832 69.6465 20.6938 69.116 21.479C68.5855 22.2641 67.8782 22.948 67.0445 23.4546C66.1856 23.9612 65.1752 24.2398 63.9626 24.2398C62.5985 24.2398 61.3859 23.9865 60.2744 23.4546C59.1629 22.9227 58.304 22.0615 57.6472 20.8457C56.9904 19.6299 56.662 18.0089 56.662 15.9572C56.662 14.0069 57.0156 12.4365 57.6977 11.1954C58.3798 9.95428 59.3145 9.06777 60.5018 8.48521C61.6385 7.85198 62.9521 7.57336 64.4173 7.57336Z" fill="#4527A0"/>
<path d="M79.7004 7.57336C81.4687 7.57336 82.8834 8.10527 83.8938 9.14376C84.9043 10.1822 85.4348 11.9299 85.4348 14.3868H75.9364L75.8859 13.8043H81.014C81.0393 12.8165 80.9887 11.9046 80.8877 11.0434C80.7866 10.1822 80.6351 9.52369 80.4077 9.01711C80.1804 8.51053 79.8772 8.25725 79.4983 8.25725C78.9425 8.25725 78.5131 8.68784 78.1594 9.54902C77.8058 10.4102 77.6037 11.8793 77.5026 13.9816L77.6289 14.2349C77.6037 14.4375 77.6037 14.6401 77.6037 14.8428C77.6037 15.0454 77.6037 15.248 77.6037 15.476C77.6037 16.8944 77.7805 18.0089 78.1342 18.7941C78.4878 19.5793 78.9425 20.1365 79.473 20.4405C80.0035 20.7444 80.5593 20.8964 81.0898 20.8964C81.494 20.8964 82.0497 20.7951 82.7318 20.5671C83.4139 20.3391 84.0959 19.7819 84.7527 18.8447L85.258 19.022C85.0053 19.8326 84.6264 20.6431 84.0959 21.4283C83.5654 22.2135 82.8581 22.8974 82.0245 23.404C81.1656 23.9105 80.1551 24.1891 78.9425 24.1891C77.6542 24.1891 76.4669 23.9359 75.4059 23.404C74.3449 22.872 73.5113 22.0109 72.8798 20.7951C72.2482 19.5793 71.9451 17.9582 71.9451 15.9066C71.9451 13.9563 72.2987 12.3859 72.9808 11.1447C73.6629 9.90363 74.5975 9.01711 75.7848 8.43455C76.9216 7.85198 78.2352 7.57336 79.7004 7.57336Z" fill="#4527A0"/>
<path d="M98.5205 7.57336C99.4551 7.57336 100.188 7.70001 100.718 7.92797C101.249 8.15593 101.653 8.45988 101.956 8.78915C102.259 9.14376 102.487 9.65034 102.613 10.2582C102.764 10.8661 102.815 11.6767 102.815 12.7151V20.947C102.815 21.8082 102.941 22.3655 103.194 22.6694C103.446 22.9734 103.876 23.1253 104.507 23.1253V23.7586C104.103 23.7332 103.497 23.7079 102.663 23.6826C101.855 23.6572 101.047 23.6319 100.264 23.6319C99.4046 23.6319 98.5962 23.6572 97.7879 23.6826C96.9795 23.7079 96.3732 23.7332 95.969 23.7586V23.1253C96.4995 23.1253 96.8532 22.9734 97.0553 22.6694C97.2574 22.3655 97.3584 21.7829 97.3584 20.947V11.0688C97.3584 10.6382 97.3079 10.2836 97.2069 10.0049C97.1058 9.72632 96.9542 9.49836 96.7269 9.37172C96.5248 9.21975 96.2217 9.16909 95.868 9.16909C95.3122 9.16909 94.807 9.37172 94.3523 9.77698C93.8976 10.1822 93.6955 10.7142 93.6955 11.3474V20.947C93.6955 21.8082 93.7965 22.3655 94.0239 22.6694C94.226 22.9734 94.6049 23.1253 95.1101 23.1253V23.7586C94.7312 23.7332 94.1502 23.7079 93.4176 23.6826C92.6598 23.6572 91.9019 23.6319 91.1188 23.6319C90.2599 23.6319 89.401 23.6572 88.5421 23.6826C87.6832 23.7079 87.0264 23.7332 86.5717 23.7586V23.1253C87.2033 23.1253 87.6327 22.9734 87.8853 22.6694C88.1379 22.3655 88.2642 21.7829 88.2642 20.947V11.322C88.2642 10.4102 88.1379 9.72632 87.9106 9.29573C87.658 8.86514 87.2285 8.63718 86.5717 8.63718V8.00396C87.2285 8.05461 87.8348 8.10527 88.4411 8.10527C89.4515 8.10527 90.3862 8.07994 91.2704 8.00396C92.1545 7.92797 92.9629 7.82665 93.7207 7.67468V9.85297C94.2007 9.04244 94.8575 8.45988 95.6659 8.10527C96.4743 7.75067 97.4342 7.57336 98.5205 7.57336Z" fill="#4527A0"/>
<path d="M112.515 7.57335C113.399 7.57335 114.157 7.67467 114.764 7.90263C115.37 8.10526 115.9 8.45987 116.38 8.91579L116.052 9.24506C115.799 9.0171 115.496 8.86513 115.168 8.73849C114.839 8.61184 114.536 8.56118 114.258 8.56118C113.324 8.56118 112.642 9.16908 112.162 10.3595C111.682 11.55 111.454 13.399 111.454 15.8559C111.454 17.6289 111.555 19.022 111.732 20.0099C111.909 20.9977 112.162 21.6816 112.465 22.0362C112.768 22.4161 113.122 22.5934 113.475 22.5934C114.031 22.5934 114.536 22.3908 114.991 21.9602C115.446 21.5549 115.648 21.023 115.648 20.3898V21.8842C115.244 22.6441 114.738 23.2266 114.157 23.6066C113.576 23.9865 112.844 24.1638 111.934 24.1638C110.772 24.1638 109.737 23.8852 108.802 23.3026C107.867 22.7201 107.109 21.8082 106.579 20.5924C106.023 19.3513 105.77 17.7556 105.77 15.7546C105.77 13.9056 106.048 12.3859 106.604 11.1701C107.16 9.95427 107.943 9.06776 108.953 8.45987C109.989 7.8773 111.176 7.57335 112.515 7.57335ZM121.13 0V20.4151C121.13 21.327 121.256 22.0109 121.508 22.4414C121.761 22.872 122.19 23.1 122.822 23.1V23.7332C122.19 23.6826 121.559 23.6319 120.953 23.6319C119.942 23.6319 119.008 23.6572 118.123 23.7332C117.264 23.8092 116.456 23.9105 115.673 24.0625V3.64737C115.673 2.73553 115.547 2.05164 115.319 1.62105C115.067 1.19046 114.637 0.9625 113.98 0.9625V0.329276C114.637 0.379934 115.244 0.430592 115.85 0.430592C116.86 0.430592 117.795 0.405263 118.679 0.329276C119.563 0.253289 120.397 0.151974 121.13 0Z" fill="#4527A0"/>
<path d="M68.9136 33.5356V46.8079C68.9136 47.6691 69.0399 48.2264 69.2925 48.5303C69.5452 48.8342 69.9746 48.9862 70.6062 48.9862V49.6194C70.202 49.5941 69.5957 49.5688 68.7873 49.5435C67.9789 49.5181 67.1453 49.4928 66.3117 49.4928C65.4528 49.4928 64.5939 49.5181 63.735 49.5435C62.8761 49.5688 62.2193 49.5941 61.7646 49.6194V48.9862C62.3961 48.9862 62.8256 48.8342 63.0782 48.5303C63.3308 48.2264 63.4571 47.6438 63.4571 46.8079V37.1829C63.4571 36.2711 63.3308 35.5872 63.1035 35.1566C62.8508 34.726 62.4214 34.4981 61.7646 34.4981V33.8648C62.4214 33.9155 63.0277 33.9662 63.6339 33.9662C64.6444 33.9662 65.5791 33.9408 66.4632 33.8648C67.3474 33.7635 68.181 33.6622 68.9136 33.5356ZM66.0085 25.8609C67.0695 25.8609 67.8779 26.0889 68.4589 26.5195C69.0399 26.95 69.3178 27.6086 69.3178 28.4698C69.3178 29.331 69.0399 29.9895 68.4589 30.4201C67.8779 30.8507 67.0695 31.0787 66.0085 31.0787C64.9475 31.0787 64.1392 30.8507 63.5582 30.4201C62.9771 29.9895 62.6993 29.331 62.6993 28.4698C62.6993 27.6086 62.9771 26.95 63.5582 26.5195C64.1392 26.0889 64.9475 25.8609 66.0085 25.8609Z" fill="#4527A0"/>
<path d="M79.8519 33.4343C81.6202 33.4343 83.0348 33.9662 84.0453 35.0047C85.0558 36.0431 85.5863 37.7908 85.5863 40.2477H76.0879L76.0374 39.6652H81.1655C81.1907 38.6774 81.1402 37.7655 81.0392 36.9043C80.9381 36.0431 80.7866 35.3846 80.5592 34.878C80.3318 34.3714 80.0287 34.1181 79.6498 34.1181C79.094 34.1181 78.6646 34.5487 78.3109 35.4099C77.9573 36.2711 77.7552 37.7402 77.6541 39.8425L77.7804 40.0958C77.7552 40.2984 77.7552 40.501 77.7552 40.7037C77.7552 40.9063 77.7552 41.1089 77.7552 41.3369C77.7552 42.7553 77.932 43.8698 78.2857 44.655C78.6393 45.4402 79.094 45.9974 79.6245 46.3014C80.155 46.6053 80.7108 46.7573 81.2413 46.7573C81.6455 46.7573 82.2012 46.656 82.8833 46.428C83.5653 46.2254 84.2474 45.6428 84.9042 44.7056L85.4094 44.8829C85.1568 45.6935 84.7779 46.504 84.2474 47.2892C83.7169 48.0744 83.0096 48.7583 82.1759 49.2649C81.317 49.7714 80.3066 50.05 79.094 50.05C77.8057 50.05 76.6184 49.7968 75.5574 49.2649C74.4964 48.7329 73.6628 47.8718 73.0312 46.656C72.3997 45.4402 72.0966 43.8191 72.0966 41.7675C72.0966 39.8172 72.4502 38.2468 73.1323 37.0056C73.8143 35.7645 74.749 34.878 75.9363 34.2954C77.0984 33.7129 78.412 33.4343 79.8519 33.4343Z" fill="#4527A0"/>
<path d="M98.6971 33.4343C99.6318 33.4343 100.364 33.5609 100.895 33.7889C101.425 34.0168 101.83 34.3208 102.133 34.6501C102.436 35.0047 102.663 35.5112 102.789 36.1191C102.941 36.727 102.992 37.5376 102.992 38.576V46.8079C102.992 47.6691 103.118 48.2264 103.371 48.5303C103.623 48.8343 104.053 48.9862 104.684 48.9862V49.6195C104.28 49.5941 103.674 49.5688 102.84 49.5435C102.032 49.5181 101.223 49.4928 100.44 49.4928C99.5813 49.4928 98.7729 49.5181 97.9645 49.5435C97.1561 49.5688 96.5499 49.5941 96.1457 49.6195V48.9862C96.6762 48.9862 97.0298 48.8343 97.2319 48.5303C97.434 48.2264 97.5351 47.6438 97.5351 46.8079V36.9297C97.5351 36.4991 97.4845 36.1445 97.3835 35.8658C97.2825 35.5872 97.1309 35.3593 96.9035 35.2326C96.7014 35.0806 96.3983 35.03 96.0446 35.03C95.4889 35.03 94.9836 35.2326 94.5289 35.6379C94.0742 36.0431 93.8721 36.5751 93.8721 37.2083V46.8079C93.8721 47.6691 93.9732 48.2264 94.2005 48.5303C94.4026 48.8343 94.7816 48.9862 95.2868 48.9862V49.6195C94.9079 49.5941 94.3268 49.5688 93.5943 49.5435C92.8364 49.5181 92.0786 49.4928 91.2954 49.4928C90.4365 49.4928 89.5777 49.5181 88.7188 49.5435C87.8599 49.5688 87.2031 49.5941 86.7484 49.6195V48.9862C87.3799 48.9862 87.8093 48.8343 88.062 48.5303C88.3146 48.2264 88.4409 47.6438 88.4409 46.8079V37.1829C88.4409 36.2711 88.3146 35.5872 88.0872 35.1566C87.8346 34.726 87.4052 34.4981 86.7484 34.4981V33.8649C87.4052 33.9155 88.0114 33.9662 88.6177 33.9662C89.6282 33.9662 90.5629 33.9408 91.447 33.8649C92.3312 33.7889 93.1395 33.6876 93.8974 33.5356V35.7139C94.3774 34.9033 95.0342 34.3208 95.8425 33.9662C96.6509 33.6116 97.5856 33.4343 98.6971 33.4343Z" fill="#4527A0"/>
<path d="M112.692 33.4343C113.576 33.4343 114.334 33.5356 114.94 33.7635C115.547 33.9662 116.077 34.3208 116.557 34.7767L116.203 35.106C115.951 34.878 115.648 34.726 115.319 34.5994C114.991 34.4727 114.688 34.4221 114.41 34.4221C113.475 34.4221 112.793 35.03 112.313 36.2204C111.833 37.4109 111.606 39.2599 111.606 41.7168C111.606 43.4898 111.707 44.8829 111.884 45.8708C112.06 46.8586 112.313 47.5425 112.616 47.8971C112.919 48.277 113.273 48.4543 113.627 48.4543C114.182 48.4543 114.688 48.2517 115.142 47.8211C115.597 47.4158 115.799 46.8839 115.799 46.2507V47.7451C115.395 48.505 114.89 49.0875 114.309 49.4675C113.728 49.8474 112.995 50.0247 112.086 50.0247C110.924 50.0247 109.888 49.7461 108.953 49.1635C108.019 48.581 107.261 47.6691 106.73 46.4533C106.174 45.2122 105.922 43.6165 105.922 41.6155C105.922 39.7665 106.2 38.2468 106.756 37.031C107.311 35.8152 108.094 34.9287 109.105 34.3208C110.166 33.7382 111.328 33.4343 112.692 33.4343ZM121.306 25.8609V46.276C121.306 47.1879 121.433 47.8718 121.685 48.3023C121.938 48.7329 122.367 48.9609 122.999 48.9609V49.5941C122.367 49.5435 121.736 49.4928 121.129 49.4928C120.119 49.4928 119.184 49.5181 118.3 49.5941C117.441 49.6448 116.608 49.7714 115.85 49.9234V29.5083C115.85 28.5964 115.723 27.9125 115.496 27.482C115.243 27.0514 114.814 26.8234 114.157 26.8234V26.1902C114.814 26.2408 115.42 26.2915 116.027 26.2915C117.037 26.2915 117.972 26.2662 118.856 26.1902C119.74 26.1142 120.548 26.0129 121.306 25.8609Z" fill="#4527A0"/>
<path d="M132.219 33.4343C133.786 33.4343 135.175 33.7129 136.337 34.2448C137.499 34.7767 138.409 35.6632 139.04 36.879C139.697 38.0948 140 39.7158 140 41.7675C140 43.8191 139.672 45.4402 139.04 46.656C138.383 47.8718 137.499 48.7329 136.337 49.2649C135.175 49.7968 133.811 50.05 132.219 50.05C130.653 50.05 129.289 49.7968 128.127 49.2649C126.965 48.7329 126.056 47.8718 125.399 46.656C124.742 45.4402 124.439 43.8191 124.439 41.7675C124.439 39.7158 124.767 38.0948 125.399 36.879C126.03 35.6632 126.965 34.7767 128.127 34.2448C129.289 33.7129 130.653 33.4343 132.219 33.4343ZM132.219 34.0422C131.613 34.0422 131.108 34.6501 130.704 35.8658C130.3 37.0816 130.097 39.0573 130.097 41.7675C130.097 44.4777 130.3 46.4533 130.704 47.6438C131.108 48.8596 131.613 49.4422 132.219 49.4422C132.826 49.4422 133.331 48.8343 133.735 47.6438C134.139 46.428 134.341 44.4777 134.341 41.7675C134.341 39.0573 134.139 37.0816 133.735 35.8658C133.331 34.6501 132.826 34.0422 132.219 34.0422Z" fill="#4527A0"/>
<line x1="62" y1="55.3438" x2="140" y2="55.3438" stroke="#4527A0"/>
<path d="M65.898 65.3249L65.3223 63.9839H63.1179L62.554 65.3249H61.5603L63.7173 60.476H64.7426L66.8997 65.3249H65.898ZM65.0739 63.3034L64.5336 61.9888C64.4942 61.9007 64.439 61.762 64.368 61.5726C64.2997 61.3832 64.2523 61.2445 64.226 61.1564C64.1551 61.4273 64.0512 61.7235 63.9145 62.045L63.394 63.3034H65.0739Z" fill="#4527A0"/>
<path d="M70.5842 62.7056H72.7058V65.13C72.3587 65.2247 72.0249 65.2919 71.7041 65.3315C71.386 65.3712 71.0417 65.391 70.671 65.391C69.7982 65.391 69.1252 65.1752 68.652 64.7436C68.1787 64.3098 67.9421 63.6987 67.9421 62.9104C67.9421 62.133 68.209 61.5253 68.7427 61.0871C69.2763 60.6467 70.0111 60.4265 70.947 60.4265C71.549 60.4265 72.1195 60.5233 72.6584 60.7171L72.3272 61.3744C71.8593 61.1939 71.3913 61.1036 70.9234 61.1036C70.3082 61.1036 69.8218 61.2654 69.4643 61.5891C69.1068 61.9128 68.928 62.3555 68.928 62.917C68.928 63.5071 69.0884 63.9564 69.4091 64.2646C69.7324 64.5707 70.1965 64.7238 70.8011 64.7238C71.1061 64.7238 71.432 64.6918 71.7791 64.628V63.3827H70.5842V62.7056Z" fill="#4527A0"/>
<path d="M77.9204 65.3249H74.6592V60.4958H77.9204V61.163H75.6016V62.4777H77.7745V63.1383H75.6016V64.6544H77.9204V65.3249Z" fill="#4527A0"/>
<path d="M84.5388 65.3249H83.3834L80.5481 61.4768H80.5165L80.5363 61.6915C80.5731 62.1011 80.5915 62.4755 80.5915 62.8146V65.3249H79.7357V60.4958H80.8793L83.7067 64.3241H83.7304C83.7251 64.2734 83.7146 64.0896 83.6989 63.7725C83.6831 63.4532 83.6752 63.2043 83.6752 63.026V60.4958H84.5388V65.3249Z" fill="#4527A0"/>
<path d="M89.0791 61.1036C88.5375 61.1036 88.1116 61.2643 87.8014 61.5858C87.4912 61.9073 87.3361 62.3511 87.3361 62.917C87.3361 63.5093 87.4846 63.9575 87.7817 64.2613C88.0814 64.5652 88.5139 64.7172 89.0791 64.7172C89.3236 64.7172 89.5602 64.6973 89.7889 64.6577C90.0176 64.6159 90.2555 64.563 90.5026 64.4992V65.1763C90.0505 65.3194 89.5378 65.391 88.9647 65.391C88.1208 65.391 87.4728 65.1774 87.0206 64.7502C86.5684 64.3208 86.3424 63.7075 86.3424 62.9104C86.3424 62.4083 86.4515 61.969 86.6697 61.5924C86.8905 61.2159 87.2086 60.9274 87.624 60.727C88.0393 60.5266 88.527 60.4265 89.087 60.4265C89.6758 60.4265 90.22 60.5299 90.7195 60.7369L90.3804 61.3943C90.1859 61.3172 89.9795 61.25 89.7613 61.1928C89.5457 61.1333 89.3183 61.1036 89.0791 61.1036Z" fill="#4527A0"/>
<path d="M92.3101 65.3249V60.4958H93.2526V65.3249H92.3101Z" fill="#4527A0"/>
<path d="M98.9207 65.3249L98.345 63.9839H96.1406L95.5767 65.3249H94.583L96.74 60.476H97.7653L99.9223 65.3249H98.9207ZM98.0965 63.3034L97.5563 61.9888C97.5168 61.9007 97.4616 61.762 97.3907 61.5726C97.3223 61.3832 97.275 61.2445 97.2487 61.1564C97.1777 61.4273 97.0739 61.7235 96.9372 62.045L96.4166 63.3034H98.0965Z" fill="#4527A0"/>
<path d="M111.264 62.8641C111.264 63.6613 111 64.2712 110.471 64.694C109.943 65.1146 109.182 65.3249 108.188 65.3249H106.575V60.4958H108.358C109.275 60.4958 109.989 60.7028 110.499 61.1168C111.009 61.5308 111.264 62.1132 111.264 62.8641ZM110.27 62.8906C110.27 61.7345 109.625 61.1564 108.334 61.1564H107.518V64.661H108.188C109.576 64.661 110.27 64.0709 110.27 62.8906Z" fill="#4527A0"/>
<path d="M113.071 65.3249V60.4958H114.014V65.3249H113.071Z" fill="#4527A0"/>
<path d="M118.463 62.7056H120.585V65.13C120.238 65.2247 119.904 65.2919 119.583 65.3315C119.265 65.3712 118.921 65.391 118.55 65.391C117.677 65.391 117.004 65.1752 116.531 64.7436C116.058 64.3098 115.821 63.6987 115.821 62.9104C115.821 62.133 116.088 61.5253 116.622 61.0871C117.155 60.6467 117.89 60.4265 118.826 60.4265C119.428 60.4265 119.999 60.5233 120.538 60.7171L120.206 61.3744C119.738 61.1939 119.27 61.1036 118.803 61.1036C118.187 61.1036 117.701 61.2654 117.343 61.5891C116.986 61.9128 116.807 62.3555 116.807 62.917C116.807 63.5071 116.968 63.9564 117.288 64.2646C117.612 64.5707 118.076 64.7238 118.68 64.7238C118.985 64.7238 119.311 64.6918 119.658 64.628V63.3827H118.463V62.7056Z" fill="#4527A0"/>
<path d="M122.538 65.3249V60.4958H123.481V65.3249H122.538Z" fill="#4527A0"/>
<path d="M127.564 65.3249H126.621V61.173H124.926V60.4958H129.259V61.173H127.564V65.3249Z" fill="#4527A0"/>
<path d="M134.289 65.3249L133.713 63.9839H131.508L130.945 65.3249H129.951L132.108 60.476H133.133L135.29 65.3249H134.289ZM133.464 63.3034L132.924 61.9888C132.885 61.9007 132.829 61.762 132.759 61.5726C132.69 61.3832 132.643 61.2445 132.617 61.1564C132.546 61.4273 132.442 61.7235 132.305 62.045L131.785 63.3034H133.464Z" fill="#4527A0"/>
<path d="M136.617 65.3249V60.4958H137.559V64.6478H140V65.3249H136.617Z" fill="#4527A0"/>
</svg>
